<svg id="visual" viewBox="0 0 900 600" width="900" height="600" xmlns="http://www.w3.org/2000/svg" xmlns:xlink="http://www.w3.org/1999/xlink" version="1.1"><rect x="0" y="0" width="900" height="600" fill="#001220"></rect><defs><linearGradient id="grad1_0" x1="33.3%" y1="0%" x2="100%" y2="100%"><stop offset="20%" stop-color="#fbae3c" stop-opacity="1"></stop><stop offset="80%" stop-color="#fbae3c" stop-opacity="1"></stop></linearGradient></defs><defs><linearGradient id="grad1_1" x1="33.3%" y1="0%" x2="100%" y2="100%"><stop offset="20%" stop-color="#fbae3c" stop-opacity="1"></stop><stop offset="80%" stop-color="#f48350" stop-opacity="1"></stop></linearGradient></defs><defs><linearGradient id="grad1_2" x1="33.3%" y1="0%" x2="100%" y2="100%"><stop offset="20%" stop-color="#d96162" stop-opacity="1"></stop><stop offset="80%" stop-color="#f48350" stop-opacity="1"></stop></linearGradient></defs><defs><linearGradient id="grad1_3" x1="33.3%" y1="0%" x2="100%" y2="100%"><stop offset="20%" stop-color="#d96162" stop-opacity="1"></stop><stop offset="80%" stop-color="#af4b6d" stop-opacity="1"></stop></linearGradient></defs><defs><linearGradient id="grad1_4" x1="33.3%" y1="0%" x2="100%" y2="100%"><stop offset="20%" stop-color="#7c3e6b" stop-opacity="1"></stop><stop offset="80%" stop-color="#af4b6d" stop-opacity="1"></stop></linearGradient></defs><defs><linearGradient id="grad1_5" x1="33.3%" y1="0%" x2="100%" y2="100%"><stop offset="20%" stop-color="#7c3e6b" stop-opacity="1"></stop><stop offset="80%" stop-color="#49335c" stop-opacity="1"></stop></linearGradient></defs><defs><linearGradient id="grad1_6" x1="33.3%" y1="0%" x2="100%" y2="100%"><stop offset="20%" stop-color="#1d2540" stop-opacity="1"></stop><stop offset="80%" stop-color="#49335c" stop-opacity="1"></stop></linearGradient></defs><defs><linearGradient id="grad1_7" x1="33.3%" y1="0%" x2="100%" y2="100%"><stop offset="20%" stop-color="#1d2540" stop-opacity="1"></stop><stop offset="80%" stop-color="#001220" stop-opacity="1"></stop></linearGradient></defs><defs><linearGradient id="grad2_0" x1="0%" y1="0%" x2="66.7%" y2="100%"><stop offset="20%" stop-color="#fbae3c" stop-opacity="1"></stop><stop offset="80%" stop-color="#fbae3c" stop-opacity="1"></stop></linearGradient></defs><defs><linearGradient id="grad2_1" x1="0%" y1="0%" x2="66.7%" y2="100%"><stop offset="20%" stop-color="#f48350" stop-opacity="1"></stop><stop offset="80%" stop-color="#fbae3c" stop-opacity="1"></stop></linearGradient></defs><defs><linearGradient id="grad2_2" x1="0%" y1="0%" x2="66.7%" y2="100%"><stop offset="20%" stop-color="#f48350" stop-opacity="1"></stop><stop offset="80%" stop-color="#d96162" stop-opacity="1"></stop></linearGradient></defs><defs><linearGradient id="grad2_3" x1="0%" y1="0%" x2="66.7%" y2="100%"><stop offset="20%" stop-color="#af4b6d" stop-opacity="1"></stop><stop offset="80%" stop-color="#d96162" stop-opacity="1"></stop></linearGradient></defs><defs><linearGradient id="grad2_4" x1="0%" y1="0%" x2="66.7%" y2="100%"><stop offset="20%" stop-color="#af4b6d" stop-opacity="1"></stop><stop offset="80%" stop-color="#7c3e6b" stop-opacity="1"></stop></linearGradient></defs><defs><linearGradient id="grad2_5" x1="0%" y1="0%" x2="66.7%" y2="100%"><stop offset="20%" stop-color="#49335c" stop-opacity="1"></stop><stop offset="80%" stop-color="#7c3e6b" stop-opacity="1"></stop></linearGradient></defs><defs><linearGradient id="grad2_6" x1="0%" y1="0%" x2="66.7%" y2="100%"><stop offset="20%" stop-color="#49335c" stop-opacity="1"></stop><stop offset="80%" stop-color="#1d2540" stop-opacity="1"></stop></linearGradient></defs><defs><linearGradient id="grad2_7" x1="0%" y1="0%" x2="66.7%" y2="100%"><stop offset="20%" stop-color="#001220" stop-opacity="1"></stop><stop offset="80%" stop-color="#1d2540" stop-opacity="1"></stop></linearGradient></defs><g transform="translate(900, 0)"><path d="M0 513.8C-59.8 449.2 -119.6 384.6 -202 349.9C-284.4 315.1 -389.2 310.2 -445 256.9C-500.7 203.6 -507.2 101.8 -513.8 0L0 0Z" fill="#0c1c30"></path><path d="M0 449.6C-52.3 393.1 -104.7 336.5 -176.7 306.1C-248.8 275.7 -340.6 271.5 -389.3 224.8C-438.1 178.1 -443.8 89.1 -449.6 0L0 0Z" fill="#312c4f"></path><path d="M0 385.3C-44.9 336.9 -89.7 288.5 -151.5 262.4C-213.3 236.3 -291.9 232.7 -333.7 192.7C-375.5 152.7 -380.4 76.3 -385.3 0L0 0Z" fill="#623965"></path><path d="M0 321.1C-37.4 280.8 -74.8 240.4 -126.2 218.7C-177.7 197 -243.3 193.9 -278.1 160.6C-312.9 127.2 -317 63.6 -321.1 0L0 0Z" fill="#96446e"></path><path d="M0 256.9C-29.9 224.6 -59.8 192.3 -101 174.9C-142.2 157.6 -194.6 155.1 -222.5 128.4C-250.3 101.8 -253.6 50.9 -256.9 0L0 0Z" fill="#c55469"></path><path d="M0 192.7C-22.4 168.5 -44.9 144.2 -75.7 131.2C-106.6 118.2 -146 116.3 -166.9 96.3C-187.8 76.3 -190.2 38.2 -192.7 0L0 0Z" fill="#e9705a"></path><path d="M0 128.4C-15 112.3 -29.9 96.2 -50.5 87.5C-71.1 78.8 -97.3 77.6 -111.2 64.2C-125.2 50.9 -126.8 25.4 -128.4 0L0 0Z" fill="#fa9845"></path><path d="M0 64.2C-7.5 56.2 -15 48.1 -25.2 43.7C-35.5 39.4 -48.7 38.8 -55.6 32.1C-62.6 25.4 -63.4 12.7 -64.2 0L0 0Z" fill="#fbae3c"></path></g><g transform="translate(0, 600)"><path d="M0 -513.8C89.3 -500 178.6 -486.3 256.9 -445C335.2 -403.6 402.4 -334.8 443.4 -256C484.4 -177.2 499.1 -88.6 513.8 0L0 0Z" fill="#0c1c30"></path><path d="M0 -449.6C78.1 -437.5 156.3 -425.5 224.8 -389.3C293.3 -353.2 352.1 -292.9 388 -224C423.8 -155.1 436.7 -77.5 449.6 0L0 0Z" fill="#312c4f"></path><path d="M0 -385.3C67 -375 134 -364.7 192.7 -333.7C251.4 -302.7 301.8 -251.1 332.6 -192C363.3 -132.9 374.3 -66.5 385.3 0L0 0Z" fill="#623965"></path><path d="M0 -321.1C55.8 -312.5 111.6 -303.9 160.6 -278.1C209.5 -252.3 251.5 -209.2 277.1 -160C302.7 -110.8 311.9 -55.4 321.1 0L0 0Z" fill="#96446e"></path><path d="M0 -256.9C44.7 -250 89.3 -243.1 128.4 -222.5C167.6 -201.8 201.2 -167.4 221.7 -128C242.2 -88.6 249.5 -44.3 256.9 0L0 0Z" fill="#c55469"></path><path d="M0 -192.7C33.5 -187.5 67 -182.4 96.3 -166.9C125.7 -151.4 150.9 -125.5 166.3 -96C181.6 -66.5 187.2 -33.2 192.7 0L0 0Z" fill="#e9705a"></path><path d="M0 -128.4C22.3 -125 44.7 -121.6 64.2 -111.2C83.8 -100.9 100.6 -83.7 110.9 -64C121.1 -44.3 124.8 -22.2 128.4 0L0 0Z" fill="#fa9845"></path><path d="M0 -64.2C11.2 -62.5 22.3 -60.8 32.1 -55.6C41.9 -50.5 50.3 -41.8 55.4 -32C60.5 -22.2 62.4 -11.1 64.2 0L0 0Z" fill="#fbae3c"></path></g></svg>